Language:English
IMDb:http://www.imdb.com/title/tt1135960/
Source:DVD

General
Complete name :Alarm 2008 DvDRip H264 Feel-Free
Format : MPEG-4
Format profile : Base Media
Codec ID : isom
File size : 831 MiB
Duration : 1h 44mn
Overall bit rate : 1 110 Kbps
Video #2
Codec ID : avc1
Codec ID/Info : Advanced Video Coding
Duration : 1h 44mn
Bit rate mode : Variable
Bit rate : 943 Kbps
Width : 720 pixels
Height : 384 pixels
Display aspect ratio : 1.875
Frame rate mode : Constant
Frame rate : 29.970 fps
Original frame rate : 29.000 fps
Resolution : 24 bits
Colorimetry : 4:2:0
Scan type : Progressive
Bits/(Pixel*Frame) : 0.114
Stream size : 706 MiB (85%)
Writing library : 4 / Mæ
Audio #1
ID : 1
Format : AAC
Format/Info : Advanced Audio Codec
Format version : Version 4
Format profile : LC
Format settings, SBR : No
Codec ID : 40
Duration : 1h 44mn
Bit rate mode : Constant
Bit rate : 160 Kbps
Channel(s) : 2 channels
Channel positions : L R
Sampling rate : 48.0 KHz
Resolution : 16 bits
Stream size : 120 MiB (14%)


Plot:
A grieving woman leaves Dublin to the Irish countryside for a fresh start. Soon her new life is disturbed by a vendetta and her own suspicion towards her new neighbors and her old friends

